# AST/ASF file generated using VICON BodyLanguage
# -----------------------------------------------
:version 1.10
:name VICON
:units
  mass 1.0
  length 0.45
  angle deg
:documentation
   .ast/.asf automatically generated from VICON data using
   VICON BodyBuilder and BodyLanguage model FoxedUp or BRILLIANT.MOD
:root
   order TX TY TZ RX RY RZ
   axis XYZ
   position 0 0 0  
   orientation 0 0 0 
:bonedata
  begin
     id 1 
     name lhipjoint
     direction 0.611804 -0.747784 0.257906 
     length 2.29243 
     axis 0 0 0  XYZ
  end
  begin
     id 2 
     name lfemur
     direction 0.34202 -0.939693 0  
     length 7.31159  
     axis 0 0 20  XYZ
    dof rx ry rz
    limits (-160.0 20.0)
           (-70.0 70.0)
           (-60.0 70.0)
  end
  begin
     id 3 
     name ltibia
     direction 0.34202 -0.939693 0   
     length 7.33391   
     axis 0 0 20   XYZ
    dof rx
    limits (-10.0 170.0)
  end
  begin
     id 4 
     name lfoot
     direction 0.122263 -0.335914 0.933924   
     length 1.76083   
     axis -90 7.62852e-016 20   XYZ
    dof rx rz
    limits (-45.0 90.0)
           (-70.0 20.0)
  end
  begin
     id 5 
     name ltoes
     direction 1.53533e-011 -4.2177e-011 1   
     length 0.879206   
     axis -90 7.62852e-016 20   XYZ
    dof rx
    limits (-90.0 20.0)
  end
  begin
     id 6 
     name rhipjoint
     direction -0.646469 -0.721248 0.248754   
     length 2.37677  
     axis 0 0 0  XYZ 
  end
  begin
     id 7 
     name rfemur
     direction -0.34202 -0.939693 0   
     length 7.18623   
     axis 0 0 -20   XYZ
    dof rx ry rz
    limits (-160.0 20.0)
           (-70.0 70.0)
           (-70.0 60.0)
  end
  begin
     id 8 
     name rtibia
     direction -0.34202 -0.939693 0   
     length 7.36567   
     axis 0 0 -20   XYZ
    dof rx
    limits (-10.0 170.0)
 end
 begin
     id 9 
     name rfoot
     direction -0.126681 -0.348054 0.928876   
     length 1.71902  
     axis -90 -7.62852e-016 -20   XYZ
    dof rx rz
    limits (-45.0 90.0)
           (-20.0 70.0)
  end
  begin
     id 10 
     name rtoes
     direction -1.53551e-011 -4.21898e-011 1   
     length 0.857792   
     axis -90 -7.62852e-016 -20   XYZ
    dof rx
    limits (-90.0 20.0)
  end
  begin
     id 11 
     name lowerback
     direction 0.0106509 0.999778 0.0181844   
     length 2.07668   
     axis 0 0 0   XYZ
    dof rx ry rz
    limits (-20.0 45.0)
           (-30.0 30.0)
           (-30.0 30.0)
  end
  begin
     id 12 
     name upperback
     direction -0.00456018 0.999989 -0.000590935   
     length 2.08011   
     axis 0 0 0   XYZ
    dof rx ry rz
    limits (-20.0 45.0)
           (-30.0 30.0)
           (-30.0 30.0)
  end
  begin
     id 13 
     name thorax
     direction -0.00910382 0.999916 -0.00923765   
     length 2.07397   
     axis 0 0 0   XYZ
    dof rx ry rz
    limits (-20.0 45.0)
           (-30.0 30.0)
           (-30.0 30.0)
  end
  begin
     id 14 
     name lowerneck
     direction 0.00171967 0.99778 0.0665733   
     length 1.67556   
     axis 0 0 0   XYZ
    dof rx ry rz
    limits (-20.0 45.0)
           (-30.0 30.0)
           (-30.0 30.0)
  end
  begin
     id 15 
     name upperneck
     direction -0.0143166 0.991302 -0.130828   
     length 1.68462   
     axis 0 0 0   XYZ
    dof rx ry rz
    limits (-20.0 45.0)
           (-30.0 30.0)
           (-30.0 30.0)
  end
  begin
     id 16
     name head
     direction -0.00606378 0.998665 -0.0512995  
     length 1.69269  
     axis 0 0 0   XYZ
    dof rx ry rz
    limits (-20.0 45.0)
           (-30.0 30.0)
           (-30.0 30.0)
  end
  begin
     id 17 
     name lclavicle
     direction 0.9638 0.179341 0.197297  
     length 4.12888  
     axis 0 0 0   XYZ
    dof ry rz
    limits (-20.0 10.0)
           (0.0 20.0)
  end
  begin
     id 18 
     name lhumerus
     direction 1 -4.48972e-011 -2.47351e-027   
     length 5.01834   
     axis -180 -30 -90   XYZ
    dof rx ry rz
    limits (-60.0 90.0)
           (-90.0 90.0)
           (-90.0 90.0)
  end
  begin
     id 19
     name lradius
     direction 1 -4.48965e-011 1.51591e-026   
     length 3.4869   
     axis -180 -30 -90   XYZ
    dof rx
    limits (-10.0 170.0)
  end
  begin
     id 20
     name lwrist
     direction 1 -4.48957e-011 2.70032e-026   
     length 1.74345   
     axis -1.81515e-014 90 90   XYZ
    dof ry
    limits (-180.0 0.0)
 end
  begin
     id 21 
     name lhand
     direction 1 -4.48951e-011 5.40064e-026   
     length 0.76799   
     axis -3.44607e-014 90 90   XYZ
    dof rx rz
    limits (-90.0 90.0)
           (-45.0 45.0)
  end
  begin
     id 22 
     name lfingers
     direction 1 -4.48971e-011 1.08013e-025   
     length 0.619174   
     axis -6.89214e-014 90 90   XYZ
    dof rx
    limits (0.0 90.0)
  end
  begin
     id 23
     name lthumb
     direction 0.707107 -6.34931e-011 0.707107   
     length 0.889013   
     axis -90 45 2.85299e-015   XYZ
    dof rx rz
    limits (-45.0 45.0)
           (-45.0 45.0)
  end
  begin
     id 24 
     name rclavicle
     direction -0.961409 0.252588 0.109054   
     length 4.04305  
     axis 0 0 0   XYZ 
    dof ry rz
    limits (-10.0 20.0)
           (-20.0 0.0)
  end
  begin
     id 25 
     name rhumerus
     direction -1 -4.4897e-011 1.33872e-017  
     length 4.70164   
     axis -180 30 90   XYZ
    dof rx ry rz
    limits (-90.0 60.0)
           (-90.0 90.0)
           (-90.0 90.0)
  end
  begin
     id 26 
     name rradius
     direction -1 -4.48954e-011 1.83844e-026   
     length 3.49911   
     axis -180 30 90   XYZ
    dof rx
    limits (-10.0 170.0)
  end
  begin
     id 27 
     name rwrist
     direction -1 -4.49008e-011 2.70032e-026   
     length 1.74955   
     axis -1.81515e-014 -90 -90   XYZ
    dof ry
    limits (-180.0 0.0)
  end
  begin
     id 28
     name rhand
     direction -1 -4.48916e-011 5.40064e-026   
     length 0.739335   
     axis -3.44607e-014 -90 -90   XYZ
    dof rx rz
    limits (-90.0 90.0)
           (-45.0 45.0)
  end
  begin
     id 29
     name rfingers
     direction -1 -4.48987e-011 1.08013e-025   
     length 0.596071   
     axis -6.89214e-014 -90 -90   XYZ
    dof rx
    limits (0.0 90.0)
  end
  begin
     id 30
     name rthumb
     direction -0.707107 -6.34935e-011 0.707107   
     length 0.855843   
     axis -90 -45 -2.85299e-015   XYZ
    dof rx rz
    limits (-45.0 45.0)
           (-45.0 45.0)
  end
:hierarchy
  begin
    root lhipjoint rhipjoint lowerback
    lhipjoint lfemur
    lfemur ltibia
    ltibia lfoot
    lfoot ltoes
    rhipjoint rfemur
    rfemur rtibia
    rtibia rfoot
    rfoot rtoes
    lowerback upperback
    upperback thorax
    thorax lowerneck lclavicle rclavicle
    lowerneck upperneck
    upperneck head
    lclavicle lhumerus
    lhumerus lradius
    lradius lwrist
    lwrist lhand lthumb
    lhand lfingers
    rclavicle rhumerus
    rhumerus rradius
    rradius rwrist
    rwrist rhand rthumb
    rhand rfingers
  end

#!OML:ASF I:\salsa\salsa 7_09\Patient 1\Session 1\dancermale.ASF
:FULLY-SPECIFIED
:DEGREES
1165
root 10.0399 16.73 0.395582 1256.89 50.8839 532.546
lowerback 6.50414 -1.12585 -4.32989
upperback -1.41617 -1.892 -6.23731
thorax -5.20992 -0.783058 -3.89657
lowerneck 2.62678 -16.3919 -24.9509
upperneck 27.7186 -25.9891 19.6156
head 15.7174 -12.3516 7.98336
rclavicle -7.32522e-014 6.83819e-014
rhumerus -37.9192 -27.4921 -65.1745
rradius 76.0983
rwrist -49.3163
rhand 26.7929 8.03298
rfingers 7.12502
rthumb 50.8019 -372.758
lclavicle -7.32522e-014 6.83819e-014
lhumerus -27.9064 -28.9692 111.655
lradius 61.329
lwrist 34.3127
lhand 11.9701 33.3076
lfingers 7.12502
lthumb 36.9924 -660.626
rfemur -11.9067 7.392 12.4897
rtibia 41.6829
rfoot -20.2821 -17.0254
rtoes -47.8932
lfemur -33.5223 -9.3537 -18.61
ltibia 21.4186
lfoot 5.90644 -7.34489
ltoes 40.4871
1166
root 9.94233 16.7906 0.615936 1258.1 50.6877 533.154
lowerback 6.36701 -0.95454 -3.79079
upperback -1.38547 -1.61439 -6.16842
thorax -5.10155 -0.667763 -4.15693
lowerneck 2.4732 -16.4892 -24.6898
upperneck 27.3634 -26.2143 20.1289
head 15.717 -12.3775 8.08677
rclavicle 4.19436e-014 -1.43125e-014
rhumerus -37.3194 -27.2734 -64.7425
rradius 75.9793
rwrist -49.289
rhand 28.122 8.17703
rfingers 7.12502
rthumb 52.0109 -371.922
lclavicle 4.19436e-014 -1.43125e-014
lhumerus -28.7457 -29.544 112.152
lradius 62.0946
lwrist 34.5083
lhand 12.4034 33.3545
lfingers 7.12502
lthumb 37.4021 -660.686
rfemur -11.9806 6.80049 13.1912
rtibia 38.8253
rfoot -19.8956 -18.1683
rtoes -46.7918
lfemur -33.5034 -7.65855 -18.2186
ltibia 20.2518
lfoot 3.18566 -6.89389
ltoes 39.5517
1167
root 9.83647 16.8463 0.827731 1259.19 50.5524 533.822
lowerback 6.3334 -0.804563 -3.30388
upperback -1.2884 -1.37633 -5.9992
thorax -4.97602 -0.570659 -4.27533
lowerneck 2.44033 -16.5702 -24.6616
upperneck 26.8859 -26.4285 20.6904
head 15.6853 -12.4366 8.24568
rclavicle 1.12313e-014 -4.45278e-014
rhumerus -36.1346 -27.0218 -64.4398
rradius 75.5112
rwrist -49.2748
rhand 29.6243 8.42933
rfingers 7.12502
rthumb 53.3689 -370.827
lclavicle 1.12313e-014 -4.45278e-014
lhumerus -29.5034 -29.8016 112.798
lradius 62.7649
lwrist 34.564
lhand 12.7587 33.4146
lfingers 7.12502
lthumb 37.7379 -660.715
rfemur -12.2491 6.53543 13.9249
rtibia 36.627
rfoot -19.4045 -18.5425
rtoes -45.2015
lfemur -33.6249 -5.74839 -18.1132
ltibia 20.3431
lfoot -0.667866 -6.73611
ltoes 41.6295
1168
root 9.72368 16.8981 1.03224 1260.12 50.4784 534.408
lowerback 6.32438 -0.738798 -2.73153
upperback -1.125 -1.24054 -5.93845
thorax -4.80332 -0.524278 -4.54631
lowerneck 2.28132 -16.6676 -24.598
upperneck 26.5452 -26.6706 21.2446
head 15.7542 -12.4941 8.38818
rclavicle 1.20265e-014 -3.49861e-014
rhumerus -34.5137 -26.8447 -64.5234
rradius 74.8481
rwrist -49.3409
rhand 31.6311 8.11562
rfingers 7.12502
rthumb 55.1671 -369.902
lclavicle 1.20265e-014 -3.49861e-014
lhumerus -30.1634 -29.9241 113.176
lradius 63.5984
lwrist 34.6714
lhand 13.0138 33.6386
lfingers 7.12502
lthumb 37.9789 -660.556
rfemur -13.0388 6.22346 14.5411
rtibia 35.4947
rfoot -18.6567 -18.4175
rtoes -44.1321
lfemur -33.9237 -3.83547 -18.2756
ltibia 21.6581
lfoot -4.21162 -5.33783
ltoes 43.7313
1169
root 9.61103 16.9544 1.23384 1261.02 50.4533 534.95
lowerback 6.36593 -0.745891 -2.35604
upperback -1.06301 -1.22738 -5.81238
thorax -4.76606 -0.532278 -4.62533
lowerneck 2.16569 -16.6661 -24.4939
upperneck 26.2203 -26.72 21.6324
head 15.7098 -12.4815 8.50594
rclavicle 1.23246e-014 7.95139e-015
rhumerus -32.8394 -26.3958 -64.6628
rradius 74.1485
rwrist -49.6705
rhand 34.3572 7.3291
rfingers 7.12502
rthumb 57.5758 -368.767
lclavicle 1.23246e-014 7.95139e-015
lhumerus -30.8538 -29.8309 113.471
lradius 64.424
lwrist 34.9839
lhand 13.161 33.869
lfingers 7.12502
lthumb 38.1179 -660.364
rfemur -14.4517 5.92169 15.1103
rtibia 35.4152
rfoot -18.264 -17.9124
rtoes -43.114
lfemur -34.3894 -1.9112 -18.6032
ltibia 24.2781
lfoot -7.82873 -2.62852
ltoes 42.8829
1170
root 9.50236 17.0151 1.4359 1261.74 50.2601 535.34
lowerback 6.55637 -0.814891 -2.42673
upperback -1.09122 -1.34386 -5.51709
thorax -4.90097 -0.591652 -4.25877
lowerneck 1.9886 -16.6135 -24.5335
upperneck 26.2919 -26.6521 21.8051
head 15.8147 -12.4276 8.60619
rclavicle -3.26007e-014 3.02153e-014
rhumerus -30.961 -25.465 -64.9207
rradius 72.9921
rwrist -49.0295
rhand 33.7692 8.66459
rfingers 7.12502
rthumb 57.06 -367.871
lclavicle -3.26007e-014 3.02153e-014
lhumerus -31.5692 -29.5804 113.924
lradius 65.1245
lwrist 35.3984
lhand 13.1288 34.0774
lfingers 7.12502
lthumb 38.0875 -660.147
rfemur -15.9868 5.55723 15.5638
rtibia 35.6767
rfoot -17.8808 -17.694
rtoes -42.5177
lfemur -34.957 -0.291884 -19.0904
ltibia 28.2109
lfoot -10.9619 0.0539263
ltoes 42.3941
1171
root 9.41525 17.0761 1.62116 1262.36 49.924 535.79
lowerback 6.52362 -0.839208 -2.63568
upperback -1.01015 -1.39102 -5.04782
thorax -4.78108 -0.612811 -3.63727
lowerneck 1.81667 -16.629 -24.8628
upperneck 26.5021 -26.6629 21.8721
head 16.0482 -12.4405 8.68639
rclavicle 6.55989e-015 1.90833e-014
rhumerus -28.9339 -24.7714 -64.9096
rradius 71.5834
rwrist -48.4405
rhand 33.8668 9.67017
rfingers 7.12502
rthumb 57.1457 -366.794
lclavicle 6.55989e-015 1.90833e-014
lhumerus -32.1047 -29.4132 114.595
lradius 65.5566
lwrist 35.6354
lhand 13.091 34.0509
lfingers 7.12502
lthumb 38.0518 -660.164
rfemur -16.9764 5.10012 16.0544
rtibia 35.4975
rfoot -17.1303 -17.7058
rtoes -42.883
lfemur -35.2436 0.939181 -19.4211
ltibia 32.3594
lfoot -13.0622 2.74212
ltoes 44.417
1172
root 9.33523 17.1439 1.8033 1263.17 49.5469 536.683
lowerback 6.75572 -0.834003 -2.61361
upperback -1.0427 -1.40426 -4.47261
thorax -4.93125 -0.625263 -3.04054
lowerneck 1.86935 -16.6056 -25.1757
upperneck 26.7143 -26.5977 21.7928
head 16.1672 -12.4444 8.73567
rclavicle -8.74653e-015 -9.54166e-015
rhumerus -27.2479 -24.1434 -64.755
rradius 70.1808
rwrist -47.9777
rhand 34.1573 10.1706
rfingers 7.12502
rthumb 57.4007 -366.077
lclavicle -8.74653e-015 -9.54166e-015
lhumerus -32.6724 -29.235 115.312
lradius 65.7814
lwrist 35.8249
lhand 13.1321 34.1134
lfingers 7.12502
lthumb 38.0906 -660.112
rfemur -17.1581 4.67949 16.9174
rtibia 34.335
rfoot -15.6653 -17.8127
rtoes -44.044
lfemur -35.2929 1.96347 -19.2685
ltibia 36.7243
lfoot -14.5595 4.69495
ltoes 45.8243
1173
root 9.25404 17.2077 1.98143 1263.98 49.2944 537.565
lowerback 6.8681 -0.790132 -2.46049
upperback -1.02872 -1.34167 -4.04855
thorax -4.96996 -0.602321 -2.68687
lowerneck 1.76842 -16.6179 -25.1968
upperneck 27.0412 -26.5782 21.6831
head 16.3306 -12.4228 8.71498
rclavicle 2.78299e-015 2.54444e-014
rhumerus -25.5917 -23.7922 -64.8145
rradius 68.8066
rwrist -47.4047
rhand 34.9689 10.3854
rfingers 7.12502
rthumb 58.1101 -365.237
lclavicle 2.78299e-015 2.54444e-014
lhumerus -32.8987 -29.2737 115.559
lradius 65.8748
lwrist 35.8543
lhand 13.0941 34.1786
lfingers 7.12502
lthumb 38.0547 -660.037
rfemur -16.8575 4.23985 17.7627
rtibia 32.2841
rfoot -13.7611 -17.4875
rtoes -45.2999
lfemur -35.2422 3.01151 -19.0481
ltibia 41.045
lfoot -15.1403 6.063
ltoes 45.9465
1174
root 9.17032 17.2657 2.15002 1264.79 49.1505 538.353
lowerback 6.74466 -0.689818 -2.14656
upperback -0.959509 -1.1752 -3.74811
thorax -4.82154 -0.532365 -2.56682
lowerneck 1.48809 -16.6895 -25.1087
upperneck 27.3931 -26.6204 21.5289
head 16.5369 -12.4055 8.62524
rclavicle -9.54166e-015 -1.59028e-015
rhumerus -23.9617 -23.6963 -64.9152
rradius 67.4543
rwrist -46.5466
rhand 36.3822 10.7851
rfingers 7.12502
rthumb 59.3346 -363.675
lclavicle -9.54166e-015 -1.59028e-015
lhumerus -32.8071 -29.4364 115.489
lradius 65.909
lwrist 35.6654
lhand 13.0294 34.1088
lfingers 7.12502
lthumb 37.9936 -660.09
rfemur -16.7942 4.34982 18.5666
rtibia 30.5086
rfoot -12.9215 -16.9669
rtoes -44.7963
lfemur -35.0668 4.09042 -18.8769
ltibia 45.2245
lfoot -15.3879 6.8413
ltoes 45.6645
1175
root 9.08184 17.3171 2.31056 1265.55 49.1719 539.002
lowerback 6.54222 -0.548258 -1.80755
upperback -0.918766 -0.950912 -3.55809
thorax -4.65928 -0.433287 -2.58306
lowerneck 1.2676 -16.726 -24.9918
upperneck 27.6142 -26.6399 21.4858
head 16.6776 -12.3765 8.58615
rclavicle -2.44505e-014 3.18055e-015
rhumerus -22.3781 -23.6875 -65.1781
rradius 66.0825
rwrist -45.7111
rhand 36.9748 11.2345
rfingers 7.12502
rthumb 59.8436 -362.709
lclavicle -2.44505e-014 3.18055e-015
lhumerus -32.6749 -29.5816 115.215
lradius 66.0477
lwrist 35.5997
lhand 12.6759 34.3165
lfingers 7.12502
lthumb 37.6597 -659.793
rfemur -16.9607 5.10014 19.2627
rtibia 29.1034
rfoot -13.1926 -16.5594
rtoes -42.129
lfemur -34.7625 5.35229 -18.8729
ltibia 49.2181
lfoot -15.0877 7.30436
ltoes 43.758
1176
root 8.99209 17.3606 2.46257 1266.12 49.2435 539.435
lowerback 6.33606 -0.399724 -1.59155
upperback -0.899324 -0.728395 -3.40823
thorax -4.51537 -0.330453 -2.57109
lowerneck 1.06235 -16.7582 -24.8287
upperneck 27.7493 -26.6385 21.403
head 16.7411 -12.3406 8.51903
rclavicle 1.03368e-014 -5.40694e-014
rhumerus -20.8202 -23.667 -65.4976
rradius 64.7094
rwrist -44.9932
rhand 36.7834 11.5506
rfingers 7.12502
rthumb 59.6796 -362.562
lclavicle 1.03368e-014 -5.40694e-014
lhumerus -32.4964 -29.6439 114.792
lradius 66.2871
lwrist 35.6519
lhand 12.0554 34.5562
lfingers 7.12502
lthumb 37.0731 -659.398
rfemur -17.2983 5.42304 19.7009
rtibia 28.1507
rfoot -12.8163 -16.2887
rtoes -41.8295
lfemur -34.1832 6.54807 -19.0676
ltibia 52.8387
lfoot -14.6758 7.80558
ltoes 42.4989
1177
root 8.89881 17.3968 2.61738 1266.57 49.3892 539.713
lowerback 6.18408 -0.183465 -1.59674
upperback -0.883147 -0.433488 -3.18672
thorax -4.40021 -0.185159 -2.36608
lowerneck 0.917101 -16.7759 -24.8488
upperneck 27.71 -26.6214 21.4097
head 16.7536 -12.3227 8.5136
rclavicle -4.94974e-014 1.90833e-014
rhumerus -19.424 -23.6362 -65.6114
rradius 63.4676
rwrist -44.388
rhand 37.1374 11.8966
rfingers 7.12502
rthumb 59.9828 -361.902
lclavicle -4.94974e-014 1.90833e-014
lhumerus -32.1886 -29.6813 114.367
lradius 66.6248
lwrist 35.8489
lhand 11.4305 34.8735
lfingers 7.12502
lthumb 36.4819 -658.93
rfemur -17.892 5.31799 20.0062
rtibia 27.7131
rfoot -11.5384 -16.0209
rtoes -44.1077
lfemur -33.3893 7.73339 -19.3511
ltibia 56.036
lfoot -14.1019 8.2046
ltoes 42.7915
1178
root 8.82377 17.4321 2.73719 1266.82 48.9145 540.018
lowerback 5.75687 -0.180763 -1.18335
upperback -0.726124 -0.381617 -3.07949
thorax -3.99577 -0.170263 -2.48932
lowerneck 0.960056 -16.6959 -24.8777
upperneck 27.6361 -26.5247 21.5977
head 16.7281 -12.2718 8.63896
rclavicle 8.80616e-014 1.11319e-014
rhumerus -18.394 -23.5853 -65.7895
rradius 62.4148
rwrist -43.8816
rhand 37.9021 12.5092
rfingers 7.12502
rthumb 60.6345 -360.587
lclavicle 8.80616e-014 1.11319e-014
lhumerus -31.9886 -29.6252 113.753
lradius 67.0621
lwrist 36.0434
lhand 11.046 35.2855
lfingers 7.12502
lthumb 36.1178 -658.427
rfemur -17.6276 4.88928 20.304
rtibia 26.4113
rfoot -11.5678 -15.5072
rtoes -41.9858
lfemur -31.9778 8.0479 -19.5872
ltibia 58.6313
lfoot -13.7176 8.44361
ltoes 44.3063
1179
root 8.7464 17.4648 2.86455 1267.12 48.5047 540.398
lowerback 5.44969 -0.146899 -0.686209
upperback -0.619093 -0.293384 -3.03274
thorax -3.71068 -0.137676 -2.72672
lowerneck 0.861781 -16.6495 -24.7528
upperneck 27.7356 -26.4447 21.6436
head 16.7638 -12.2039 8.67286
rclavicle -3.79679e-014 3.4191e-014
rhumerus -17.505 -23.4924 -66.0489
rradius 61.4787
rwrist -43.5059
rhand 38.4609 12.8826
rfingers 7.12502
rthumb 61.1075 -359.68
lclavicle -3.79679e-014 3.4191e-014
lhumerus -31.7906 -29.5343 112.967
lradius 67.4595
lwrist 36.142
lhand 10.9496 35.6828
lfingers 7.12502
lthumb 36.0265 -658.007
rfemur -17.2958 4.79919 20.7045
rtibia 24.8256
rfoot -11.0516 -15.3236
rtoes -40.1388
lfemur -30.4455 8.44595 -19.8099
ltibia 60.7736
lfoot -13.1845 8.8369
ltoes 45.5342
